<mxfile host="app.diagrams.net" modified="2021-12-23T01:57:33.234Z" agent="5.0 (Windows NT 10.0; Win64; x64) AppleWebKit/537.36 (KHTML, like Gecko) Chrome/96.0.4664.110 Safari/537.36" etag="FdEf9mHt7kqrfd39uHEs" version="16.0.3" type="github">
  <diagram id="5cSsOeWGvjAQ2Ak-Ryve" name="Page-1">
    <mxGraphModel dx="1585" dy="868" grid="1" gridSize="10" guides="1" tooltips="1" connect="1" arrows="1" fold="1" page="1" pageScale="1" pageWidth="1654" pageHeight="1169" math="0" shadow="0">
      <root>
        <mxCell id="0" />
        <mxCell id="1" parent="0" />
        <mxCell id="fs4cdyZ-lPKIgxJvVlQ3-1" value="" style="rounded=0;whiteSpace=wrap;html=1;" parent="1" vertex="1">
          <mxGeometry x="870" y="605" width="660" height="290" as="geometry" />
        </mxCell>
        <mxCell id="fs4cdyZ-lPKIgxJvVlQ3-2" value="MIDI keyboard" style="rounded=1;whiteSpace=wrap;html=1;" parent="1" vertex="1">
          <mxGeometry x="260" y="570" width="120" height="60" as="geometry" />
        </mxCell>
        <mxCell id="fs4cdyZ-lPKIgxJvVlQ3-3" value="" style="rounded=1;whiteSpace=wrap;html=1;glass=0;sketch=0;shadow=0;" parent="1" vertex="1">
          <mxGeometry x="200" y="160" width="240" height="380" as="geometry" />
        </mxCell>
        <mxCell id="fs4cdyZ-lPKIgxJvVlQ3-4" value="uC" style="text;html=1;strokeColor=none;fillColor=none;align=center;verticalAlign=middle;whiteSpace=wrap;rounded=0;" parent="1" vertex="1">
          <mxGeometry x="200" y="165" width="60" height="30" as="geometry" />
        </mxCell>
        <mxCell id="fs4cdyZ-lPKIgxJvVlQ3-5" value="" style="rounded=0;whiteSpace=wrap;html=1;dashed=1;" parent="1" vertex="1">
          <mxGeometry x="260" y="440" width="120" height="60" as="geometry" />
        </mxCell>
        <mxCell id="fs4cdyZ-lPKIgxJvVlQ3-6" value="" style="rounded=0;whiteSpace=wrap;html=1;dashed=1;" parent="1" vertex="1">
          <mxGeometry x="240" y="195" width="160" height="205" as="geometry" />
        </mxCell>
        <mxCell id="fs4cdyZ-lPKIgxJvVlQ3-7" value="CM7" style="text;html=1;strokeColor=none;fillColor=none;align=center;verticalAlign=middle;whiteSpace=wrap;rounded=0;dashed=1;" parent="1" vertex="1">
          <mxGeometry x="230" y="195" width="60" height="30" as="geometry" />
        </mxCell>
        <mxCell id="fs4cdyZ-lPKIgxJvVlQ3-8" value="CM4" style="text;html=1;strokeColor=none;fillColor=none;align=center;verticalAlign=middle;whiteSpace=wrap;rounded=0;dashed=1;" parent="1" vertex="1">
          <mxGeometry x="290" y="455" width="60" height="30" as="geometry" />
        </mxCell>
        <mxCell id="fs4cdyZ-lPKIgxJvVlQ3-9" value="" style="endArrow=classic;startArrow=classic;html=1;rounded=0;entryX=0.5;entryY=1;entryDx=0;entryDy=0;dashed=1;" parent="1" target="fs4cdyZ-lPKIgxJvVlQ3-11" edge="1">
          <mxGeometry width="50" height="50" relative="1" as="geometry">
            <mxPoint x="320" y="440" as="sourcePoint" />
            <mxPoint x="390" y="380" as="targetPoint" />
          </mxGeometry>
        </mxCell>
        <mxCell id="fs4cdyZ-lPKIgxJvVlQ3-10" value="SynthCom" style="text;html=1;strokeColor=none;fillColor=none;align=center;verticalAlign=middle;whiteSpace=wrap;rounded=0;dashed=1;" parent="1" vertex="1">
          <mxGeometry x="330" y="410" width="60" height="30" as="geometry" />
        </mxCell>
        <mxCell id="fs4cdyZ-lPKIgxJvVlQ3-11" value="Synth" style="rounded=0;whiteSpace=wrap;html=1;" parent="1" vertex="1">
          <mxGeometry x="260" y="310" width="120" height="60" as="geometry" />
        </mxCell>
        <mxCell id="fs4cdyZ-lPKIgxJvVlQ3-12" value="" style="endArrow=classic;html=1;rounded=0;exitX=0.5;exitY=0;exitDx=0;exitDy=0;entryX=0.5;entryY=1;entryDx=0;entryDy=0;" parent="1" source="fs4cdyZ-lPKIgxJvVlQ3-2" target="fs4cdyZ-lPKIgxJvVlQ3-5" edge="1">
          <mxGeometry width="50" height="50" relative="1" as="geometry">
            <mxPoint x="380" y="490" as="sourcePoint" />
            <mxPoint x="430" y="440" as="targetPoint" />
          </mxGeometry>
        </mxCell>
        <mxCell id="fs4cdyZ-lPKIgxJvVlQ3-13" value="OLED" style="rounded=1;whiteSpace=wrap;html=1;" parent="1" vertex="1">
          <mxGeometry x="40" y="400" width="120" height="60" as="geometry" />
        </mxCell>
        <mxCell id="fs4cdyZ-lPKIgxJvVlQ3-14" value="Encoder" style="rounded=1;whiteSpace=wrap;html=1;" parent="1" vertex="1">
          <mxGeometry x="40" y="480" width="120" height="60" as="geometry" />
        </mxCell>
        <mxCell id="fs4cdyZ-lPKIgxJvVlQ3-15" value="" style="endArrow=classic;html=1;rounded=0;exitX=0;exitY=0.25;exitDx=0;exitDy=0;entryX=1;entryY=0.5;entryDx=0;entryDy=0;" parent="1" source="fs4cdyZ-lPKIgxJvVlQ3-5" target="fs4cdyZ-lPKIgxJvVlQ3-13" edge="1">
          <mxGeometry width="50" height="50" relative="1" as="geometry">
            <mxPoint x="230" y="480" as="sourcePoint" />
            <mxPoint x="190" y="475" as="targetPoint" />
            <Array as="points">
              <mxPoint x="180" y="455" />
              <mxPoint x="180" y="450" />
              <mxPoint x="180" y="430" />
            </Array>
          </mxGeometry>
        </mxCell>
        <mxCell id="fs4cdyZ-lPKIgxJvVlQ3-16" value="" style="endArrow=classic;html=1;rounded=0;exitX=1;exitY=0.5;exitDx=0;exitDy=0;entryX=0;entryY=0.75;entryDx=0;entryDy=0;" parent="1" source="fs4cdyZ-lPKIgxJvVlQ3-14" target="fs4cdyZ-lPKIgxJvVlQ3-5" edge="1">
          <mxGeometry width="50" height="50" relative="1" as="geometry">
            <mxPoint x="230" y="480" as="sourcePoint" />
            <mxPoint x="220" y="540" as="targetPoint" />
            <Array as="points">
              <mxPoint x="180" y="510" />
              <mxPoint x="180" y="485" />
            </Array>
          </mxGeometry>
        </mxCell>
        <mxCell id="fs4cdyZ-lPKIgxJvVlQ3-17" value="DAC" style="rounded=1;whiteSpace=wrap;html=1;" parent="1" vertex="1">
          <mxGeometry x="480" y="310" width="120" height="60" as="geometry" />
        </mxCell>
        <mxCell id="fs4cdyZ-lPKIgxJvVlQ3-18" value="" style="endArrow=classic;html=1;rounded=0;exitX=1;exitY=0.5;exitDx=0;exitDy=0;" parent="1" source="fs4cdyZ-lPKIgxJvVlQ3-11" edge="1">
          <mxGeometry width="50" height="50" relative="1" as="geometry">
            <mxPoint x="410" y="340" as="sourcePoint" />
            <mxPoint x="480" y="340" as="targetPoint" />
          </mxGeometry>
        </mxCell>
        <mxCell id="fs4cdyZ-lPKIgxJvVlQ3-19" value="Smooth filter" style="rounded=1;whiteSpace=wrap;html=1;" parent="1" vertex="1">
          <mxGeometry x="640" y="310" width="120" height="60" as="geometry" />
        </mxCell>
        <mxCell id="fs4cdyZ-lPKIgxJvVlQ3-20" value="" style="endArrow=classic;html=1;rounded=0;exitX=1;exitY=0.5;exitDx=0;exitDy=0;entryX=0;entryY=0.5;entryDx=0;entryDy=0;" parent="1" source="fs4cdyZ-lPKIgxJvVlQ3-17" target="fs4cdyZ-lPKIgxJvVlQ3-19" edge="1">
          <mxGeometry width="50" height="50" relative="1" as="geometry">
            <mxPoint x="490" y="370" as="sourcePoint" />
            <mxPoint x="540" y="320" as="targetPoint" />
          </mxGeometry>
        </mxCell>
        <mxCell id="fs4cdyZ-lPKIgxJvVlQ3-21" value="" style="endArrow=classic;html=1;rounded=0;exitX=1;exitY=0.5;exitDx=0;exitDy=0;" parent="1" source="fs4cdyZ-lPKIgxJvVlQ3-19" edge="1">
          <mxGeometry width="50" height="50" relative="1" as="geometry">
            <mxPoint x="810" y="340" as="sourcePoint" />
            <mxPoint x="810" y="340" as="targetPoint" />
          </mxGeometry>
        </mxCell>
        <mxCell id="fs4cdyZ-lPKIgxJvVlQ3-22" value="Output" style="text;html=1;strokeColor=none;fillColor=none;align=center;verticalAlign=middle;whiteSpace=wrap;rounded=0;" parent="1" vertex="1">
          <mxGeometry x="760" y="310" width="60" height="30" as="geometry" />
        </mxCell>
        <mxCell id="fs4cdyZ-lPKIgxJvVlQ3-23" value="External Flash" style="rounded=1;whiteSpace=wrap;html=1;" parent="1" vertex="1">
          <mxGeometry x="260" y="40" width="120" height="60" as="geometry" />
        </mxCell>
        <mxCell id="fs4cdyZ-lPKIgxJvVlQ3-24" value="" style="endArrow=classic;html=1;rounded=0;exitX=0.5;exitY=1;exitDx=0;exitDy=0;entryX=0.5;entryY=0;entryDx=0;entryDy=0;" parent="1" source="fs4cdyZ-lPKIgxJvVlQ3-23" target="fs4cdyZ-lPKIgxJvVlQ3-25" edge="1">
          <mxGeometry width="50" height="50" relative="1" as="geometry">
            <mxPoint x="360" y="180" as="sourcePoint" />
            <mxPoint x="310" y="120" as="targetPoint" />
          </mxGeometry>
        </mxCell>
        <mxCell id="fs4cdyZ-lPKIgxJvVlQ3-25" value="Wavetable" style="rounded=0;whiteSpace=wrap;html=1;" parent="1" vertex="1">
          <mxGeometry x="260" y="220" width="120" height="60" as="geometry" />
        </mxCell>
        <mxCell id="fs4cdyZ-lPKIgxJvVlQ3-26" value="" style="endArrow=classic;startArrow=classic;html=1;rounded=0;exitX=0.5;exitY=0;exitDx=0;exitDy=0;entryX=0.5;entryY=1;entryDx=0;entryDy=0;dashed=1;" parent="1" source="fs4cdyZ-lPKIgxJvVlQ3-11" target="fs4cdyZ-lPKIgxJvVlQ3-25" edge="1">
          <mxGeometry width="50" height="50" relative="1" as="geometry">
            <mxPoint x="350" y="260" as="sourcePoint" />
            <mxPoint x="400" y="210" as="targetPoint" />
          </mxGeometry>
        </mxCell>
        <mxCell id="fs4cdyZ-lPKIgxJvVlQ3-27" value="Synth" style="text;html=1;strokeColor=none;fillColor=none;align=center;verticalAlign=middle;whiteSpace=wrap;rounded=0;" parent="1" vertex="1">
          <mxGeometry x="860" y="600" width="60" height="30" as="geometry" />
        </mxCell>
        <mxCell id="fs4cdyZ-lPKIgxJvVlQ3-28" value="Setting synthesis/eg parameters, voices activating/deactivating" style="rounded=0;whiteSpace=wrap;html=1;" parent="1" vertex="1">
          <mxGeometry x="1070" y="815" width="120" height="60" as="geometry" />
        </mxCell>
        <mxCell id="fs4cdyZ-lPKIgxJvVlQ3-29" value="" style="endArrow=classic;startArrow=none;html=1;rounded=0;entryX=0.5;entryY=1;entryDx=0;entryDy=0;startFill=0;dashed=1;" parent="1" target="fs4cdyZ-lPKIgxJvVlQ3-28" edge="1">
          <mxGeometry width="50" height="50" relative="1" as="geometry">
            <mxPoint x="1130" y="935" as="sourcePoint" />
            <mxPoint x="1010" y="905" as="targetPoint" />
          </mxGeometry>
        </mxCell>
        <mxCell id="fs4cdyZ-lPKIgxJvVlQ3-30" value="" style="rounded=0;whiteSpace=wrap;html=1;" parent="1" vertex="1">
          <mxGeometry x="890" y="625" width="620" height="170" as="geometry" />
        </mxCell>
        <mxCell id="fs4cdyZ-lPKIgxJvVlQ3-31" value="SynthCom" style="text;html=1;strokeColor=none;fillColor=none;align=center;verticalAlign=middle;whiteSpace=wrap;rounded=0;dashed=1;" parent="1" vertex="1">
          <mxGeometry x="1135" y="905" width="60" height="30" as="geometry" />
        </mxCell>
        <mxCell id="fs4cdyZ-lPKIgxJvVlQ3-32" value="" style="endArrow=classic;startArrow=classic;html=1;rounded=0;startFill=1;dashed=1;exitX=0;exitY=0.5;exitDx=0;exitDy=0;" parent="1" source="fs4cdyZ-lPKIgxJvVlQ3-28" edge="1">
          <mxGeometry width="50" height="50" relative="1" as="geometry">
            <mxPoint x="1000" y="945" as="sourcePoint" />
            <mxPoint x="820" y="845" as="targetPoint" />
          </mxGeometry>
        </mxCell>
        <mxCell id="fs4cdyZ-lPKIgxJvVlQ3-33" value="&#xa;&#xa;&lt;span style=&quot;color: rgb(0, 0, 0); font-family: helvetica; font-size: 12px; font-style: normal; font-weight: 400; letter-spacing: normal; text-align: center; text-indent: 0px; text-transform: none; word-spacing: 0px; background-color: rgb(248, 249, 250); display: inline; float: none;&quot;&gt;voice&lt;/span&gt;&#xa;&#xa;" style="rounded=0;whiteSpace=wrap;html=1;" parent="1" vertex="1">
          <mxGeometry x="1110" y="660" width="120" height="60" as="geometry" />
        </mxCell>
        <mxCell id="fs4cdyZ-lPKIgxJvVlQ3-34" value="" style="rounded=0;whiteSpace=wrap;html=1;" parent="1" vertex="1">
          <mxGeometry x="1090" y="680" width="120" height="60" as="geometry" />
        </mxCell>
        <mxCell id="fs4cdyZ-lPKIgxJvVlQ3-35" value="" style="rounded=0;whiteSpace=wrap;html=1;" parent="1" vertex="1">
          <mxGeometry x="1080" y="690" width="120" height="60" as="geometry" />
        </mxCell>
        <mxCell id="fs4cdyZ-lPKIgxJvVlQ3-36" value="" style="endArrow=none;dashed=1;html=1;dashPattern=1 3;strokeWidth=2;rounded=0;exitX=1;exitY=0;exitDx=0;exitDy=0;" parent="1" edge="1">
          <mxGeometry width="50" height="50" relative="1" as="geometry">
            <mxPoint x="1210" y="740" as="sourcePoint" />
            <mxPoint x="1230" y="720" as="targetPoint" />
            <Array as="points">
              <mxPoint x="1210" y="740" />
            </Array>
          </mxGeometry>
        </mxCell>
        <mxCell id="fs4cdyZ-lPKIgxJvVlQ3-37" value="" style="endArrow=none;dashed=1;html=1;dashPattern=1 3;strokeWidth=2;rounded=0;exitX=1;exitY=0;exitDx=0;exitDy=0;" parent="1" edge="1">
          <mxGeometry width="50" height="50" relative="1" as="geometry">
            <mxPoint x="1090" y="680" as="sourcePoint" />
            <mxPoint x="1110" y="660" as="targetPoint" />
          </mxGeometry>
        </mxCell>
        <mxCell id="fs4cdyZ-lPKIgxJvVlQ3-38" value="voice" style="rounded=0;whiteSpace=wrap;html=1;" parent="1" vertex="1">
          <mxGeometry x="1070" y="700" width="120" height="60" as="geometry" />
        </mxCell>
        <mxCell id="fs4cdyZ-lPKIgxJvVlQ3-39" value="" style="endArrow=none;dashed=1;html=1;dashPattern=1 3;strokeWidth=2;rounded=0;exitX=1;exitY=0;exitDx=0;exitDy=0;" parent="1" edge="1">
          <mxGeometry width="50" height="50" relative="1" as="geometry">
            <mxPoint x="1210" y="680" as="sourcePoint" />
            <mxPoint x="1230" y="660" as="targetPoint" />
            <Array as="points">
              <mxPoint x="1210" y="680" />
            </Array>
          </mxGeometry>
        </mxCell>
        <mxCell id="fs4cdyZ-lPKIgxJvVlQ3-40" value="Signal to &quot;Wavetable&quot; block" style="text;html=1;strokeColor=none;fillColor=none;align=center;verticalAlign=middle;whiteSpace=wrap;rounded=0;" parent="1" vertex="1">
          <mxGeometry x="790" y="795" width="60" height="30" as="geometry" />
        </mxCell>
        <mxCell id="fs4cdyZ-lPKIgxJvVlQ3-41" value="" style="endArrow=none;dashed=1;html=1;dashPattern=1 3;strokeWidth=2;rounded=0;exitX=1;exitY=0;exitDx=0;exitDy=0;" parent="1" edge="1">
          <mxGeometry width="50" height="50" relative="1" as="geometry">
            <mxPoint x="1270" y="680" as="sourcePoint" />
            <mxPoint x="1290" y="660" as="targetPoint" />
          </mxGeometry>
        </mxCell>
        <mxCell id="fs4cdyZ-lPKIgxJvVlQ3-42" value="" style="endArrow=none;dashed=1;html=1;dashPattern=1 3;strokeWidth=2;rounded=0;exitX=1;exitY=0;exitDx=0;exitDy=0;" parent="1" edge="1">
          <mxGeometry width="50" height="50" relative="1" as="geometry">
            <mxPoint x="1390" y="680" as="sourcePoint" />
            <mxPoint x="1410" y="660" as="targetPoint" />
          </mxGeometry>
        </mxCell>
        <mxCell id="fs4cdyZ-lPKIgxJvVlQ3-43" value="" style="endArrow=none;dashed=1;html=1;dashPattern=1 3;strokeWidth=2;rounded=0;exitX=1;exitY=0;exitDx=0;exitDy=0;" parent="1" edge="1">
          <mxGeometry width="50" height="50" relative="1" as="geometry">
            <mxPoint x="1390" y="740" as="sourcePoint" />
            <mxPoint x="1410" y="720" as="targetPoint" />
          </mxGeometry>
        </mxCell>
        <mxCell id="fs4cdyZ-lPKIgxJvVlQ3-44" value="" style="endArrow=classic;startArrow=none;html=1;rounded=0;entryX=0.5;entryY=1;entryDx=0;entryDy=0;startFill=0;dashed=1;exitX=0.5;exitY=0;exitDx=0;exitDy=0;" parent="1" source="fs4cdyZ-lPKIgxJvVlQ3-28" target="fs4cdyZ-lPKIgxJvVlQ3-38" edge="1">
          <mxGeometry width="50" height="50" relative="1" as="geometry">
            <mxPoint x="979.53" y="805" as="sourcePoint" />
            <mxPoint x="979.53" y="740" as="targetPoint" />
          </mxGeometry>
        </mxCell>
        <mxCell id="fs4cdyZ-lPKIgxJvVlQ3-45" value="" style="endArrow=classic;startArrow=none;html=1;rounded=0;startFill=0;dashed=1;exitX=1;exitY=0.5;exitDx=0;exitDy=0;" parent="1" edge="1">
          <mxGeometry width="50" height="50" relative="1" as="geometry">
            <mxPoint x="1230" y="690" as="sourcePoint" />
            <mxPoint x="1290" y="690" as="targetPoint" />
          </mxGeometry>
        </mxCell>
        <mxCell id="fs4cdyZ-lPKIgxJvVlQ3-46" value="Amplitude envelope generators" style="rounded=0;whiteSpace=wrap;html=1;" parent="1" vertex="1">
          <mxGeometry x="1290" y="660" width="120" height="60" as="geometry" />
        </mxCell>
        <mxCell id="fs4cdyZ-lPKIgxJvVlQ3-47" value="" style="endArrow=classic;startArrow=none;html=1;rounded=0;startFill=0;dashed=1;exitX=1;exitY=0.5;exitDx=0;exitDy=0;" parent="1" edge="1">
          <mxGeometry width="50" height="50" relative="1" as="geometry">
            <mxPoint x="1210" y="710.5" as="sourcePoint" />
            <mxPoint x="1270" y="710.5" as="targetPoint" />
          </mxGeometry>
        </mxCell>
        <mxCell id="fs4cdyZ-lPKIgxJvVlQ3-48" value="Amplitude envelope generators" style="rounded=0;whiteSpace=wrap;html=1;" parent="1" vertex="1">
          <mxGeometry x="1270" y="680" width="120" height="60" as="geometry" />
        </mxCell>
        <mxCell id="fs4cdyZ-lPKIgxJvVlQ3-49" value="" style="endArrow=classic;startArrow=none;html=1;rounded=0;startFill=0;dashed=1;exitX=1;exitY=0.5;exitDx=0;exitDy=0;" parent="1" edge="1">
          <mxGeometry width="50" height="50" relative="1" as="geometry">
            <mxPoint x="1200" y="720.5" as="sourcePoint" />
            <mxPoint x="1260" y="720.5" as="targetPoint" />
          </mxGeometry>
        </mxCell>
        <mxCell id="fs4cdyZ-lPKIgxJvVlQ3-50" value="Amplitude envelope generators" style="rounded=0;whiteSpace=wrap;html=1;" parent="1" vertex="1">
          <mxGeometry x="1260" y="690" width="120" height="60" as="geometry" />
        </mxCell>
        <mxCell id="fs4cdyZ-lPKIgxJvVlQ3-51" value="" style="endArrow=classic;startArrow=none;html=1;rounded=0;startFill=0;dashed=1;exitX=1;exitY=0.5;exitDx=0;exitDy=0;" parent="1" edge="1">
          <mxGeometry width="50" height="50" relative="1" as="geometry">
            <mxPoint x="1190" y="730.5" as="sourcePoint" />
            <mxPoint x="1250" y="730.5" as="targetPoint" />
          </mxGeometry>
        </mxCell>
        <mxCell id="fs4cdyZ-lPKIgxJvVlQ3-52" value="Amplitude envelope generator" style="rounded=0;whiteSpace=wrap;html=1;" parent="1" vertex="1">
          <mxGeometry x="1250" y="700" width="120" height="60" as="geometry" />
        </mxCell>
        <mxCell id="fs4cdyZ-lPKIgxJvVlQ3-53" value="" style="endArrow=classic;html=1;rounded=0;dashed=1;exitX=1;exitY=0.5;exitDx=0;exitDy=0;entryX=0.5;entryY=1;entryDx=0;entryDy=0;" parent="1" source="fs4cdyZ-lPKIgxJvVlQ3-28" target="fs4cdyZ-lPKIgxJvVlQ3-52" edge="1">
          <mxGeometry width="50" height="50" relative="1" as="geometry">
            <mxPoint x="1050" y="825" as="sourcePoint" />
            <mxPoint x="1100" y="775" as="targetPoint" />
            <Array as="points">
              <mxPoint x="1310" y="845" />
            </Array>
          </mxGeometry>
        </mxCell>
        <mxCell id="fs4cdyZ-lPKIgxJvVlQ3-54" value="Buffer selector" style="rounded=0;whiteSpace=wrap;html=1;shadow=0;glass=0;sketch=0;" parent="1" vertex="1">
          <mxGeometry x="910" y="680" width="120" height="60" as="geometry" />
        </mxCell>
        <mxCell id="fs4cdyZ-lPKIgxJvVlQ3-55" value="" style="endArrow=classic;html=1;rounded=0;dashed=1;exitX=1;exitY=0.5;exitDx=0;exitDy=0;entryX=-0.013;entryY=0.162;entryDx=0;entryDy=0;entryPerimeter=0;" parent="1" source="fs4cdyZ-lPKIgxJvVlQ3-54" target="fs4cdyZ-lPKIgxJvVlQ3-38" edge="1">
          <mxGeometry width="50" height="50" relative="1" as="geometry">
            <mxPoint x="1080" y="775" as="sourcePoint" />
            <mxPoint x="1130" y="725" as="targetPoint" />
          </mxGeometry>
        </mxCell>
        <mxCell id="fs4cdyZ-lPKIgxJvVlQ3-56" value="Synth process" style="text;html=1;strokeColor=none;fillColor=none;align=center;verticalAlign=middle;whiteSpace=wrap;rounded=0;" parent="1" vertex="1">
          <mxGeometry x="890" y="630" width="60" height="30" as="geometry" />
        </mxCell>
        <mxCell id="fs4cdyZ-lPKIgxJvVlQ3-57" value="" style="endArrow=classic;html=1;rounded=0;exitX=1;exitY=0.5;exitDx=0;exitDy=0;" parent="1" edge="1">
          <mxGeometry width="50" height="50" relative="1" as="geometry">
            <mxPoint x="1490" y="709.7299999999999" as="sourcePoint" />
            <mxPoint x="1570" y="709.93" as="targetPoint" />
          </mxGeometry>
        </mxCell>
        <mxCell id="fs4cdyZ-lPKIgxJvVlQ3-58" value="To DAC by DMA and I2S" style="text;html=1;strokeColor=none;fillColor=none;align=center;verticalAlign=middle;whiteSpace=wrap;rounded=0;shadow=0;glass=0;sketch=0;" parent="1" vertex="1">
          <mxGeometry x="1540" y="670" width="60" height="30" as="geometry" />
        </mxCell>
        <mxCell id="_vsaTvYPk_aq1BfGxIVg-1" value="" style="ellipse;whiteSpace=wrap;html=1;aspect=fixed;" vertex="1" parent="1">
          <mxGeometry x="1450" y="690" width="40" height="40" as="geometry" />
        </mxCell>
        <mxCell id="_vsaTvYPk_aq1BfGxIVg-2" value="" style="endArrow=none;html=1;rounded=0;" edge="1" parent="1">
          <mxGeometry width="50" height="50" relative="1" as="geometry">
            <mxPoint x="1470" y="720" as="sourcePoint" />
            <mxPoint x="1470" y="700" as="targetPoint" />
          </mxGeometry>
        </mxCell>
        <mxCell id="_vsaTvYPk_aq1BfGxIVg-3" value="" style="endArrow=none;html=1;rounded=0;" edge="1" parent="1">
          <mxGeometry width="50" height="50" relative="1" as="geometry">
            <mxPoint x="1460" y="710" as="sourcePoint" />
            <mxPoint x="1480" y="710" as="targetPoint" />
          </mxGeometry>
        </mxCell>
        <mxCell id="_vsaTvYPk_aq1BfGxIVg-4" value="" style="endArrow=classic;startArrow=none;html=1;rounded=0;startFill=0;dashed=1;exitX=1;exitY=0.5;exitDx=0;exitDy=0;" edge="1" parent="1">
          <mxGeometry width="50" height="50" relative="1" as="geometry">
            <mxPoint x="1190" y="730" as="sourcePoint" />
            <mxPoint x="1250" y="730" as="targetPoint" />
          </mxGeometry>
        </mxCell>
        <mxCell id="_vsaTvYPk_aq1BfGxIVg-5" value="" style="endArrow=classic;startArrow=none;html=1;rounded=0;startFill=0;dashed=1;exitX=1;exitY=0.5;exitDx=0;exitDy=0;" edge="1" parent="1">
          <mxGeometry width="50" height="50" relative="1" as="geometry">
            <mxPoint x="1190" y="730" as="sourcePoint" />
            <mxPoint x="1250" y="730" as="targetPoint" />
          </mxGeometry>
        </mxCell>
        <mxCell id="_vsaTvYPk_aq1BfGxIVg-6" value="" style="endArrow=classic;startArrow=none;html=1;rounded=0;startFill=0;dashed=1;exitX=1;exitY=0.5;exitDx=0;exitDy=0;" edge="1" parent="1">
          <mxGeometry width="50" height="50" relative="1" as="geometry">
            <mxPoint x="1190" y="730" as="sourcePoint" />
            <mxPoint x="1250" y="730" as="targetPoint" />
          </mxGeometry>
        </mxCell>
        <mxCell id="_vsaTvYPk_aq1BfGxIVg-7" value="" style="endArrow=classic;startArrow=none;html=1;rounded=0;startFill=0;dashed=1;exitX=1;exitY=0.5;exitDx=0;exitDy=0;" edge="1" parent="1">
          <mxGeometry width="50" height="50" relative="1" as="geometry">
            <mxPoint x="1190" y="730" as="sourcePoint" />
            <mxPoint x="1250" y="730" as="targetPoint" />
          </mxGeometry>
        </mxCell>
        <mxCell id="_vsaTvYPk_aq1BfGxIVg-8" value="" style="endArrow=classic;startArrow=none;html=1;rounded=0;startFill=0;dashed=1;exitX=1;exitY=0.5;exitDx=0;exitDy=0;" edge="1" parent="1">
          <mxGeometry width="50" height="50" relative="1" as="geometry">
            <mxPoint x="1190" y="730" as="sourcePoint" />
            <mxPoint x="1250" y="730" as="targetPoint" />
          </mxGeometry>
        </mxCell>
        <mxCell id="_vsaTvYPk_aq1BfGxIVg-17" value="" style="endArrow=classic;startArrow=none;html=1;rounded=0;startFill=0;dashed=1;exitX=1;exitY=0.5;exitDx=0;exitDy=0;entryX=0;entryY=0.5;entryDx=0;entryDy=0;endSize=6;endFill=1;" edge="1" parent="1" target="_vsaTvYPk_aq1BfGxIVg-1">
          <mxGeometry width="50" height="50" relative="1" as="geometry">
            <mxPoint x="1370" y="729.46" as="sourcePoint" />
            <mxPoint x="1430" y="729.46" as="targetPoint" />
            <Array as="points">
              <mxPoint x="1440" y="729" />
            </Array>
          </mxGeometry>
        </mxCell>
        <mxCell id="_vsaTvYPk_aq1BfGxIVg-18" value="" style="endArrow=classic;startArrow=none;html=1;rounded=0;startFill=0;dashed=1;exitX=1;exitY=0.5;exitDx=0;exitDy=0;endSize=6;endFill=1;" edge="1" parent="1">
          <mxGeometry width="50" height="50" relative="1" as="geometry">
            <mxPoint x="1380" y="719.46" as="sourcePoint" />
            <mxPoint x="1450" y="710" as="targetPoint" />
            <Array as="points">
              <mxPoint x="1440" y="719" />
            </Array>
          </mxGeometry>
        </mxCell>
        <mxCell id="_vsaTvYPk_aq1BfGxIVg-19" value="" style="endArrow=classic;startArrow=none;html=1;rounded=0;startFill=0;dashed=1;exitX=1;exitY=0.5;exitDx=0;exitDy=0;endSize=6;endFill=1;" edge="1" parent="1">
          <mxGeometry width="50" height="50" relative="1" as="geometry">
            <mxPoint x="1390" y="709.46" as="sourcePoint" />
            <mxPoint x="1450" y="709" as="targetPoint" />
            <Array as="points">
              <mxPoint x="1450" y="709" />
            </Array>
          </mxGeometry>
        </mxCell>
        <mxCell id="_vsaTvYPk_aq1BfGxIVg-20" value="" style="endArrow=classic;startArrow=none;html=1;rounded=0;startFill=0;dashed=1;exitX=1;exitY=0.5;exitDx=0;exitDy=0;entryX=0;entryY=0.5;entryDx=0;entryDy=0;endSize=6;endFill=1;" edge="1" parent="1" target="_vsaTvYPk_aq1BfGxIVg-1">
          <mxGeometry width="50" height="50" relative="1" as="geometry">
            <mxPoint x="1410" y="690.46" as="sourcePoint" />
            <mxPoint x="1470.0000000000002" y="690" as="targetPoint" />
            <Array as="points">
              <mxPoint x="1440" y="690" />
            </Array>
          </mxGeometry>
        </mxCell>
      </root>
    </mxGraphModel>
  </diagram>
</mxfile>
